<svg xmlns="http://www.w3.org/2000/svg" width="200" height="200" viewBox="0 0 200 200">
  <defs>
    <style>
      .doodle {
        fill: none;
        stroke: #FF6000;
        stroke-width: 1.2;
        stroke-linecap: round;
        stroke-linejoin: round;
        opacity: 0.18;
      }
    </style>
  </defs>

  <!-- Moto/Livraison -->
  <g class="doodle" transform="translate(10, 10)">
    <ellipse cx="8" cy="18" rx="7" ry="7"/>
    <ellipse cx="32" cy="18" rx="7" ry="7"/>
    <path d="M8 18 L15 10 L25 10 L32 18"/>
    <path d="M15 10 L18 4 L24 4"/>
    <path d="M20 10 L20 15"/>
  </g>

  <!-- Colis -->
  <g class="doodle" transform="translate(60, 8)">
    <rect x="0" y="6" width="24" height="18" rx="1"/>
    <path d="M0 6 L12 0 L24 6"/>
    <path d="M12 0 L12 24"/>
    <path d="M6 9 L18 9"/>
  </g>

  <!-- Maison -->
  <g class="doodle" transform="translate(120, 8)">
    <path d="M12 2 L22 10 L22 24 L2 24 L2 10 Z"/>
    <path d="M0 10 L12 2 L24 10"/>
    <rect x="8" y="16" width="8" height="8"/>
    <path d="M14 6 L18 6 L18 10 L14 10"/>
  </g>

  <!-- Épingle localisation -->
  <g class="doodle" transform="translate(165, 5)">
    <path d="M12 2 C7 2 3 6 3 11 C3 17 12 26 12 26 C12 26 21 17 21 11 C21 6 17 2 12 2Z"/>
    <circle cx="12" cy="11" r="4"/>
  </g>

  <!-- Sac shopping -->
  <g class="doodle" transform="translate(8, 55)">
    <path d="M4 8 L20 8 L18 24 L6 24 Z"/>
    <path d="M8 8 C8 8 8 3 12 3 C16 3 16 8 16 8"/>
    <path d="M8 13 L16 13"/>
  </g>

  <!-- Étoile -->
  <g class="doodle" transform="translate(55, 50)">
    <path d="M12 2 L14.5 9 L22 9 L16 14 L18.5 21 L12 17 L5.5 21 L8 14 L2 9 L9.5 9 Z"/>
  </g>

  <!-- Téléphone -->
  <g class="doodle" transform="translate(100, 50)">
    <rect x="4" y="1" width="16" height="26" rx="3"/>
    <path d="M4 5 L20 5"/>
    <path d="M4 22 L20 22"/>
    <circle cx="12" cy="25" r="1.5"/>
  </g>

  <!-- Camion livraison -->
  <g class="doodle" transform="translate(140, 52)">
    <rect x="0" y="6" width="22" height="14" rx="1"/>
    <path d="M22 10 L28 10 L32 14 L32 20 L22 20"/>
    <ellipse cx="6" cy="22" rx="4" ry="4"/>
    <ellipse cx="26" cy="22" rx="4" ry="4"/>
    <path d="M0 14 L22 14"/>
  </g>

  <!-- Coeur -->
  <g class="doodle" transform="translate(10, 110)">
    <path d="M12 20 C12 20 2 13 2 7 C2 4 4 2 7 2 C9 2 11 3 12 5 C13 3 15 2 17 2 C20 2 22 4 22 7 C22 13 12 20 12 20Z"/>
  </g>

  <!-- Cloche notification -->
  <g class="doodle" transform="translate(55, 108)">
    <path d="M12 2 C8 2 5 5 5 9 L5 16 L2 19 L22 19 L19 16 L19 9 C19 5 16 2 12 2Z"/>
    <path d="M9 19 C9 21 10.5 22 12 22 C13.5 22 15 21 15 19"/>
  </g>

  <!-- Tag prix -->
  <g class="doodle" transform="translate(100, 108)">
    <path d="M4 4 L14 4 L22 12 L14 20 L4 20 Z"/>
    <circle cx="8" cy="8" r="2"/>
    <path d="M10 14 L18 6"/>
  </g>

  <!-- Portefeuille -->
  <g class="doodle" transform="translate(145, 108)">
    <rect x="1" y="5" width="26" height="18" rx="2"/>
    <path d="M1 10 L27 10"/>
    <rect x="18" y="12" width="8" height="6" rx="1"/>
    <circle cx="22" cy="15" r="1.5"/>
    <path d="M5 2 L22 2 L27 5 L1 5"/>
  </g>

  <!-- Flèche route -->
  <g class="doodle" transform="translate(12, 160)">
    <path d="M4 12 L18 12"/>
    <path d="M13 7 L18 12 L13 17"/>
    <path d="M4 8 L4 16"/>
  </g>

  <!-- Reçu -->
  <g class="doodle" transform="translate(55, 158)">
    <path d="M3 2 L21 2 L21 26 L18 24 L15 26 L12 24 L9 26 L6 24 L3 26 Z"/>
    <path d="M7 8 L17 8"/>
    <path d="M7 12 L17 12"/>
    <path d="M7 16 L13 16"/>
  </g>

  <!-- Cadeau -->
  <g class="doodle" transform="translate(100, 158)">
    <rect x="2" y="10" width="20" height="14" rx="1"/>
    <path d="M2 10 L22 10 L22 14 L2 14 Z"/>
    <path d="M12 10 L12 24"/>
    <path d="M12 10 C12 10 8 6 10 4 C12 2 14 4 12 8"/>
    <path d="M12 10 C12 10 16 6 14 4 C12 2 10 4 12 8"/>
  </g>

  <!-- Couronne -->
  <g class="doodle" transform="translate(148, 160)">
    <path d="M2 20 L6 8 L12 14 L18 6 L22 14 L26 20 Z"/>
    <path d="M2 20 L26 20"/>
    <circle cx="6" cy="8" r="2"/>
    <circle cx="18" cy="6" r="2"/>
    <circle cx="26" cy="14" r="2"/>
  </g>

</svg>
