<svg xmlns="http://www.w3.org/2000/svg" width="400" height="400" viewBox="0 0 400 400">
  <defs>
    <style>
      .d {
        fill: none;
        stroke: #FF6000;
        stroke-width: 1.2;
        stroke-linecap: round;
        stroke-linejoin: round;
        opacity: 0.18;
      }
    </style>
  </defs>

  <!-- ========== LIGNE 1 ========== -->

  <!-- Moto -->
  <g class="d" transform="translate(5,5)">
    <ellipse cx="8" cy="18" rx="7" ry="7"/>
    <ellipse cx="32" cy="18" rx="7" ry="7"/>
    <path d="M8 18 L15 10 L25 10 L32 18"/>
    <path d="M15 10 L18 4 L24 4"/>
    <path d="M20 10 L20 15"/>
  </g>

  <!-- Colis -->
  <g class="d" transform="translate(55,5)">
    <rect x="0" y="6" width="24" height="18" rx="1"/>
    <path d="M0 6 L12 0 L24 6"/>
    <path d="M12 0 L12 24"/>
    <path d="M6 9 L18 9"/>
  </g>

  <!-- Maison -->
  <g class="d" transform="translate(105,5)">
    <path d="M12 2 L22 12 L22 24 L2 24 L2 12 Z"/>
    <path d="M0 12 L12 2 L24 12"/>
    <rect x="8" y="16" width="8" height="8"/>
  </g>

  <!-- Localisation -->
  <g class="d" transform="translate(155,3)">
    <path d="M12 2 C7 2 3 6 3 11 C3 17 12 26 12 26 C12 26 21 17 21 11 C21 6 17 2 12 2Z"/>
    <circle cx="12" cy="11" r="4"/>
  </g>

  <!-- Sac shopping -->
  <g class="d" transform="translate(205,5)">
    <path d="M4 8 L20 8 L18 24 L6 24 Z"/>
    <path d="M8 8 C8 8 8 3 12 3 C16 3 16 8 16 8"/>
    <path d="M8 13 L16 13"/>
  </g>

  <!-- Étoile -->
  <g class="d" transform="translate(252,4)">
    <path d="M12 2 L14.5 9 L22 9 L16 14 L18.5 21 L12 17 L5.5 21 L8 14 L2 9 L9.5 9 Z"/>
  </g>

  <!-- Téléphone -->
  <g class="d" transform="translate(300,3)">
    <rect x="4" y="1" width="16" height="26" rx="3"/>
    <path d="M4 5 L20 5"/>
    <path d="M4 22 L20 22"/>
    <circle cx="12" cy="25" r="1.5"/>
  </g>

  <!-- Camion -->
  <g class="d" transform="translate(340,5)">
    <rect x="0" y="6" width="22" height="14" rx="1"/>
    <path d="M22 10 L28 10 L32 14 L32 20 L22 20"/>
    <ellipse cx="6" cy="22" rx="4" ry="4"/>
    <ellipse cx="26" cy="22" rx="4" ry="4"/>
    <path d="M0 14 L22 14"/>
  </g>

  <!-- ========== LIGNE 2 ========== -->

  <!-- Coeur -->
  <g class="d" transform="translate(5,55)">
    <path d="M12 20 C12 20 2 13 2 7 C2 4 4 2 7 2 C9 2 11 3 12 5 C13 3 15 2 17 2 C20 2 22 4 22 7 C22 13 12 20 12 20Z"/>
  </g>

  <!-- Cloche -->
  <g class="d" transform="translate(55,53)">
    <path d="M12 2 C8 2 5 5 5 9 L5 16 L2 19 L22 19 L19 16 L19 9 C19 5 16 2 12 2Z"/>
    <path d="M9 19 C9 21 10.5 22 12 22 C13.5 22 15 21 15 19"/>
  </g>

  <!-- Tag -->
  <g class="d" transform="translate(105,53)">
    <path d="M4 4 L14 4 L22 12 L14 20 L4 20 Z"/>
    <circle cx="8" cy="8" r="2"/>
    <path d="M10 14 L18 6"/>
  </g>

  <!-- Portefeuille -->
  <g class="d" transform="translate(155,55)">
    <rect x="1" y="5" width="26" height="18" rx="2"/>
    <path d="M1 10 L27 10"/>
    <rect x="18" y="12" width="8" height="6" rx="1"/>
    <circle cx="22" cy="15" r="1.5"/>
  </g>

  <!-- Vélo -->
  <g class="d" transform="translate(205,55)">
    <circle cx="6" cy="18" r="6"/>
    <circle cx="26" cy="18" r="6"/>
    <path d="M6 18 L16 8 L26 18"/>
    <path d="M16 8 L20 4"/>
    <path d="M16 8 L16 14"/>
    <circle cx="16" cy="14" r="2"/>
  </g>

  <!-- Flèche -->
  <g class="d" transform="translate(255,60)">
    <path d="M2 12 L20 12"/>
    <path d="M14 6 L20 12 L14 18"/>
  </g>

  <!-- Reçu -->
  <g class="d" transform="translate(300,53)">
    <path d="M3 2 L21 2 L21 26 L18 24 L15 26 L12 24 L9 26 L6 24 L3 26 Z"/>
    <path d="M7 8 L17 8"/>
    <path d="M7 12 L17 12"/>
    <path d="M7 16 L13 16"/>
  </g>

  <!-- Cadeau -->
  <g class="d" transform="translate(345,53)">
    <rect x="2" y="10" width="20" height="14" rx="1"/>
    <path d="M2 10 L22 10 L22 14 L2 14 Z"/>
    <path d="M12 10 L12 24"/>
    <path d="M12 10 C12 10 8 6 10 4 C12 2 14 4 12 8"/>
    <path d="M12 10 C12 10 16 6 14 4 C12 2 10 4 12 8"/>
  </g>

  <!-- ========== LIGNE 3 ========== -->

  <!-- Couronne -->
  <g class="d" transform="translate(5,105)">
    <path d="M2 20 L6 8 L12 14 L18 6 L22 14 L26 20 Z"/>
    <path d="M2 20 L26 20"/>
    <circle cx="6" cy="8" r="2"/>
    <circle cx="18" cy="6" r="2"/>
    <circle cx="26" cy="14" r="2"/>
  </g>

  <!-- Loupe -->
  <g class="d" transform="translate(55,105)">
    <circle cx="10" cy="10" r="8"/>
    <path d="M16 16 L24 24"/>
  </g>

  <!-- Avion papier -->
  <g class="d" transform="translate(105,108)">
    <path d="M2 12 L26 4 L18 26 L12 16 Z"/>
    <path d="M12 16 L26 4"/>
  </g>

  <!-- Trophée -->
  <g class="d" transform="translate(155,105)">
    <path d="M6 2 L18 2 L18 14 C18 18 15 20 12 20 C9 20 6 18 6 14 Z"/>
    <path d="M6 6 L2 6 L2 10 C2 12 4 14 6 14"/>
    <path d="M18 6 L22 6 L22 10 C22 12 20 14 18 14"/>
    <path d="M9 20 L9 24 L15 24 L15 20"/>
    <path d="M6 24 L18 24"/>
  </g>

  <!-- Carte -->
  <g class="d" transform="translate(205,108)">
    <rect x="1" y="4" width="26" height="18" rx="2"/>
    <path d="M1 9 L27 9"/>
    <path d="M5 14 L10 14"/>
    <path d="M5 17 L14 17"/>
  </g>

  <!-- Soleil -->
  <g class="d" transform="translate(255,105)">
    <circle cx="12" cy="12" r="5"/>
    <path d="M12 2 L12 5"/>
    <path d="M12 19 L12 22"/>
    <path d="M2 12 L5 12"/>
    <path d="M19 12 L22 12"/>
    <path d="M4.9 4.9 L7 7"/>
    <path d="M17 17 L19.1 19.1"/>
    <path d="M19.1 4.9 L17 7"/>
    <path d="M7 17 L4.9 19.1"/>
  </g>

  <!-- Fusée -->
  <g class="d" transform="translate(303,103)">
    <path d="M12 2 C12 2 20 6 20 14 L16 18 L8 18 L4 14 C4 6 12 2 12 2Z"/>
    <circle cx="12" cy="10" r="3"/>
    <path d="M8 18 L6 24 L12 20 L18 24 L16 18"/>
    <path d="M4 14 L1 16"/>
    <path d="M20 14 L23 16"/>
  </g>

  <!-- Bouclier -->
  <g class="d" transform="translate(348,105)">
    <path d="M12 2 L22 6 L22 14 C22 19 17 23 12 25 C7 23 2 19 2 14 L2 6 Z"/>
    <path d="M8 12 L11 15 L16 9"/>
  </g>

  <!-- ========== LIGNE 4 ========== -->

  <!-- Café -->
  <g class="d" transform="translate(5,155)">
    <path d="M4 8 L20 8 L18 22 L6 22 Z"/>
    <path d="M20 10 L24 10 C24 10 26 14 22 16"/>
    <path d="M8 4 C8 4 6 2 8 0"/>
    <path d="M12 4 C12 4 10 2 12 0"/>
    <path d="M16 4 C16 4 14 2 16 0"/>
  </g>

  <!-- Horloge -->
  <g class="d" transform="translate(55,155)">
    <circle cx="12" cy="12" r="10"/>
    <path d="M12 6 L12 12 L16 16"/>
  </g>

  <!-- Nuage -->
  <g class="d" transform="translate(105,158)">
    <path d="M5 16 C2 16 0 14 0 11 C0 8 2 6 5 6 C5 3 8 1 11 2 C13 1 16 2 17 5 C20 5 22 7 22 10 C22 13 20 16 17 16 Z"/>
  </g>

  <!-- Éclair -->
  <g class="d" transform="translate(160,155)">
    <path d="M14 2 L6 13 L12 13 L10 24 L18 11 L12 11 Z"/>
  </g>

  <!-- Calculatrice -->
  <g class="d" transform="translate(205,155)">
    <rect x="2" y="1" width="20" height="26" rx="2"/>
    <rect x="5" y="4" width="14" height="6" rx="1"/>
    <circle cx="7" cy="15" r="1.5"/>
    <circle cx="12" cy="15" r="1.5"/>
    <circle cx="17" cy="15" r="1.5"/>
    <circle cx="7" cy="20" r="1.5"/>
    <circle cx="12" cy="20" r="1.5"/>
    <circle cx="17" cy="20" r="1.5"/>
  </g>

  <!-- Diamant -->
  <g class="d" transform="translate(255,158)">
    <path d="M12 2 L22 9 L18 22 L6 22 L2 9 Z"/>
    <path d="M2 9 L22 9"/>
    <path d="M7 2 L2 9"/>
    <path d="M17 2 L22 9"/>
  </g>

  <!-- Carte géo -->
  <g class="d" transform="translate(305,155)">
    <path d="M2 4 L9 2 L15 5 L22 3 L22 22 L15 24 L9 21 L2 23 Z"/>
    <path d="M9 2 L9 21"/>
    <path d="M15 5 L15 24"/>
  </g>

  <!-- Poignée de main -->
  <g class="d" transform="translate(348,158)">
    <path d="M2 14 L8 8 L13 10 L18 8 L26 14"/>
    <path d="M8 8 L8 4 L13 2 L13 10"/>
    <path d="M2 14 L2 18 L10 22 L18 18 L26 14 L26 18 L18 22"/>
  </g>

  <!-- ========== LIGNE 5 ========== -->

  <!-- Smartphone -->
  <g class="d" transform="translate(5,205)">
    <rect x="3" y="1" width="18" height="28" rx="3"/>
    <path d="M3 5 L21 5"/>
    <path d="M3 23 L21 23"/>
    <circle cx="12" cy="26" r="1.5"/>
    <rect x="7" y="8" width="10" height="12" rx="1"/>
  </g>

  <!-- Boussole -->
  <g class="d" transform="translate(55,205)">
    <circle cx="12" cy="12" r="10"/>
    <path d="M12 4 L12 6"/>
    <path d="M12 18 L12 20"/>
    <path d="M4 12 L6 12"/>
    <path d="M18 12 L20 12"/>
    <path d="M9 9 L12 15 L15 9 L12 12 Z"/>
  </g>

  <!-- Entrepôt -->
  <g class="d" transform="translate(105,205)">
    <path d="M1 10 L12 2 L23 10 L23 26 L1 26 Z"/>
    <path d="M8 26 L8 16 L16 16 L16 26"/>
    <path d="M1 10 L23 10"/>
    <rect x="10" y="13" width="4" height="4"/>
  </g>

  <!-- Pouce levé -->
  <g class="d" transform="translate(155,208)">
    <path d="M10 20 L4 20 L4 12 L8 12 L12 4 C14 4 16 5 16 8 L14 8 L14 12 L20 12 L20 20 L10 20Z"/>
  </g>

  <!-- Graphique -->
  <g class="d" transform="translate(205,205)">
    <path d="M2 22 L2 4"/>
    <path d="M2 22 L24 22"/>
    <path d="M5 18 L9 12 L13 15 L17 8 L21 10"/>
    <circle cx="5" cy="18" r="1.5"/>
    <circle cx="9" cy="12" r="1.5"/>
    <circle cx="13" cy="15" r="1.5"/>
    <circle cx="17" cy="8" r="1.5"/>
    <circle cx="21" cy="10" r="1.5"/>
  </g>

  <!-- Recyclage -->
  <g class="d" transform="translate(255,205)">
    <path d="M12 3 L17 12 L14 12 L14 18 L10 18 L10 12 L7 12 Z"/>
    <path d="M19 15 L14 24 L12 21 L7 24 L9 18"/>
    <path d="M5 15 L3 18 L7 24 L10 21"/>
  </g>

  <!-- Sablier -->
  <g class="d" transform="translate(305,205)">
    <path d="M4 2 L20 2 L20 4 L14 10 L14 14 L20 20 L20 22 L4 22 L4 20 L10 14 L10 10 L4 4 Z"/>
    <path d="M4 2 L20 2"/>
    <path d="M4 22 L20 22"/>
  </g>

  <!-- Médaille -->
  <g class="d" transform="translate(350,205)">
    <circle cx="12" cy="18" r="8"/>
    <path d="M8 10 L8 2 L16 2 L16 10"/>
    <path d="M9 14 L12 20 L15 14"/>
    <path d="M10 2 L14 2"/>
  </g>

  <!-- ========== LIGNE 6 ========== -->

  <!-- Clé -->
  <g class="d" transform="translate(5,255)">
    <circle cx="8" cy="8" r="6"/>
    <path d="M12 12 L22 22"/>
    <path d="M18 18 L20 16"/>
    <path d="M20 20 L22 18"/>
  </g>

  <!-- Signalisation -->
  <g class="d" transform="translate(55,255)">
    <path d="M12 2 L12 26"/>
    <path d="M12 6 L22 6 L22 14 L12 14"/>
    <path d="M12 16 L2 16 L2 22 L12 22"/>
  </g>

  <!-- Livre -->
  <g class="d" transform="translate(105,255)">
    <path d="M4 2 L20 2 L20 26 L4 26 C4 26 2 24 2 22 L2 4 C2 2 4 2 4 2Z"/>
    <path d="M4 2 L4 26"/>
    <path d="M8 8 L16 8"/>
    <path d="M8 12 L16 12"/>
    <path d="M8 16 L13 16"/>
  </g>

  <!-- Ampoule -->
  <g class="d" transform="translate(155,255)">
    <path d="M12 2 C8 2 5 5 5 9 C5 13 8 15 9 17 L15 17 C16 15 19 13 19 9 C19 5 16 2 12 2Z"/>
    <path d="M9 17 L9 20 L15 20 L15 17"/>
    <path d="M10 20 L10 22 L14 22 L14 20"/>
    <path d="M12 22 L12 24"/>
  </g>

  <!-- Courrier -->
  <g class="d" transform="translate(205,258)">
    <rect x="1" y="4" width="26" height="18" rx="2"/>
    <path d="M1 4 L14 14 L27 4"/>
    <path d="M1 22 L9 14"/>
    <path d="M27 22 L19 14"/>
  </g>

  <!-- Casque -->
  <g class="d" transform="translate(255,255)">
    <path d="M4 14 C4 8 8 3 12 3 C16 3 20 8 20 14"/>
    <rect x="1" y="12" width="5" height="8" rx="2"/>
    <rect x="18" y="12" width="5" height="8" rx="2"/>
    <path d="M20 18 C20 22 16 24 12 24"/>
    <path d="M12 24 L12 26 L10 26"/>
  </g>

  <!-- Avion -->
  <g class="d" transform="translate(305,258)">
    <path d="M22 12 L2 6 L8 12 L2 18 Z"/>
    <path d="M8 12 L14 14 L12 20"/>
    <path d="M8 12 L10 6 L14 8"/>
  </g>

  <!-- Ruban -->
  <g class="d" transform="translate(350,255)">
    <circle cx="12" cy="10" r="8"/>
    <path d="M6 16 L2 26 L12 22 L22 26 L18 16"/>
    <path d="M9 10 L12 13 L15 10 L12 7 Z"/>
  </g>

  <!-- ========== LIGNE 7 ========== -->

  <!-- Chariot -->
  <g class="d" transform="translate(5,305)">
    <path d="M2 4 L6 4 L10 18 L22 18"/>
    <path d="M8 8 L22 8 L20 16 L10 16"/>
    <circle cx="12" cy="22" r="3"/>
    <circle cx="20" cy="22" r="3"/>
  </g>

  <!-- Montgolfière -->
  <g class="d" transform="translate(55,302)">
    <path d="M12 2 C7 2 3 6 3 11 C3 16 7 20 12 20 C17 20 21 16 21 11 C21 6 17 2 12 2Z"/>
    <path d="M8 20 L10 26 L14 26 L16 20"/>
    <path d="M10 26 L14 26"/>
    <path d="M6 11 L18 11"/>
    <path d="M7 7 L17 7"/>
    <path d="M5 15 L19 15"/>
  </g>

  <!-- Drapeau -->
  <g class="d" transform="translate(108,305)">
    <path d="M4 2 L4 26"/>
    <path d="M4 2 L20 6 L4 12"/>
  </g>

  <!-- Wifi -->
  <g class="d" transform="translate(155,308)">
    <path d="M2 10 C6 6 18 6 22 10"/>
    <path d="M5 14 C8 11 16 11 19 14"/>
    <path d="M8 18 C10 16 14 16 16 18"/>
    <circle cx="12" cy="22" r="2"/>
  </g>

  <!-- Palette -->
  <g class="d" transform="translate(200,305)">
    <path d="M12 2 C7 2 2 7 2 12 C2 17 7 22 12 22 C14 22 15 20 14 18 C13 16 14 14 16 14 C20 14 22 11 22 9 C22 5 17 2 12 2Z"/>
    <circle cx="7" cy="9" r="2"/>
    <circle cx="12" cy="5" r="2"/>
    <circle cx="17" cy="8" r="2"/>
  </g>

  <!-- Crayon -->
  <g class="d" transform="translate(255,305)">
    <path d="M18 2 L22 6 L8 20 L2 22 L4 16 Z"/>
    <path d="M16 4 L20 8"/>
    <path d="M4 16 L8 20"/>
  </g>

  <!-- Ancre -->
  <g class="d" transform="translate(305,305)">
    <circle cx="12" cy="6" r="4"/>
    <path d="M12 10 L12 26"/>
    <path d="M6 14 L18 14"/>
    <path d="M12 26 C12 26 4 22 4 18"/>
    <path d="M12 26 C12 26 20 22 20 18"/>
  </g>

  <!-- Puzzle -->
  <g class="d" transform="translate(350,305)">
    <path d="M2 2 L12 2 L12 6 C14 6 16 7 16 9 C16 11 14 12 12 12 L12 16 L2 16 Z"/>
    <path d="M12 2 L22 2 L22 12 L18 12 C18 14 17 16 15 16 C13 16 12 14 12 12 L12 2"/>
    <path d="M2 16 L12 16 L12 22 C10 22 8 21 8 19 C8 17 10 16 12 16 L12 26 L2 26 Z"/>
    <path d="M12 16 L22 16 L22 26 L12 26 L12 22 C14 22 16 21 16 19 C16 17 14 16 12 16"/>
  </g>

  <!-- ========== LIGNE 8 ========== -->

  <!-- Planète -->
  <g class="d" transform="translate(5,355)">
    <circle cx="12" cy="12" r="9"/>
    <ellipse cx="12" cy="12" rx="14" ry="5" transform="rotate(-20 12 12)"/>
  </g>

  <!-- Palmier -->
  <g class="d" transform="translate(55,352)">
    <path d="M12 26 L12 10"/>
    <path d="M12 10 C12 10 6 6 4 2 C8 2 12 6 12 10"/>
    <path d="M12 10 C12 10 18 6 20 2 C16 2 12 6 12 10"/>
    <path d="M12 14 C12 14 6 10 2 8 C4 12 10 14 12 14"/>
    <path d="M12 14 C12 14 18 10 22 8 C20 12 14 14 12 14"/>
  </g>

  <!-- Flocon -->
  <g class="d" transform="translate(108,355)">
    <path d="M12 2 L12 22"/>
    <path d="M2 12 L22 12"/>
    <path d="M5 5 L19 19"/>
    <path d="M19 5 L5 19"/>
    <path d="M12 2 L9 5 M12 2 L15 5"/>
    <path d="M12 22 L9 19 M12 22 L15 19"/>
    <path d="M2 12 L5 9 M2 12 L5 15"/>
    <path d="M22 12 L19 9 M22 12 L19 15"/>
  </g>

  <!-- Courbe tendance -->
  <g class="d" transform="translate(155,358)">
    <path d="M2 18 C6 14 10 8 14 10 C18 12 20 6 24 4"/>
    <path d="M20 4 L24 4 L24 8"/>
  </g>

  <!-- Robot -->
  <g class="d" transform="translate(202,352)">
    <rect x="5" y="8" width="18" height="16" rx="2"/>
    <rect x="8" y="12" width="5" height="5" rx="1"/>
    <rect x="15" y="12" width="5" height="5" rx="1"/>
    <path d="M14 8 L14 4 L12 2"/>
    <circle cx="14" cy="2" r="2"/>
    <path d="M5 14 L2 14"/>
    <path d="M23 14 L26 14"/>
    <path d="M9 24 L9 28"/>
    <path d="M19 24 L19 28"/>
    <path d="M10 20 L18 20"/>
  </g>

  <!-- Confettis -->
  <g class="d" transform="translate(255,355)">
    <rect x="4" y="4" width="5" height="5" rx="1" transform="rotate(20 6 6)"/>
    <rect x="14" y="2" width="4" height="4" rx="1" transform="rotate(-15 16 4)"/>
    <rect x="2" y="14" width="6" height="4" rx="1" transform="rotate(10 5 16)"/>
    <rect x="16" y="14" width="5" height="5" rx="1" transform="rotate(-25 18 16)"/>
    <rect x="10" y="18" width="4" height="6" rx="1" transform="rotate(15 12 21)"/>
    <path d="M20 6 L22 2"/>
    <path d="M8 22 L6 26"/>
    <path d="M24 18 L26 22"/>
  </g>

  <!-- Megaphone -->
  <g class="d" transform="translate(305,355)">
    <path d="M4 9 L4 17 L8 17 L18 22 L18 4 L8 9 Z"/>
    <path d="M4 9 L8 9 L8 17 L4 17"/>
    <path d="M20 8 C22 10 22 16 20 18"/>
    <path d="M6 17 L6 24"/>
  </g>

  <!-- Feuille -->
  <g class="d" transform="translate(352,355)">
    <path d="M12 24 C12 24 4 18 4 10 C4 5 8 2 12 2 C16 2 22 5 22 12 C22 18 12 24 12 24Z"/>
    <path d="M12 24 L12 14"/>
    <path d="M12 18 L8 14"/>
    <path d="M12 16 L16 12"/>
  </g>

</svg>
